<svg xmlns="http://www.w3.org/2000/svg" viewBox="0 0 64 64" fill="none">
  <defs>
    <linearGradient id="body" x1="0" y1="0" x2="0" y2="64">
      <stop offset="0" stop-color="#f5f1dd"/>
      <stop offset="1" stop-color="#d9d2b5"/>
    </linearGradient>
    <linearGradient id="screen" x1="0" y1="0" x2="0" y2="1">
      <stop offset="0" stop-color="#f7fbff"/>
      <stop offset="1" stop-color="#cfe2f5"/>
    </linearGradient>
  </defs>

  <rect x="10" y="6" width="44" height="52" rx="4" fill="url(#body)" stroke="#6b6b6b" stroke-width="2"/>
  <rect x="14" y="12" width="36" height="12" rx="2" fill="url(#screen)" stroke="#7f9db9" stroke-width="2"/>

  <g opacity="0.9">
    <rect x="14" y="28" width="8" height="8" rx="1.5" fill="#f7f7f7" stroke="#8a8a8a"/>
    <rect x="24" y="28" width="8" height="8" rx="1.5" fill="#f7f7f7" stroke="#8a8a8a"/>
    <rect x="34" y="28" width="8" height="8" rx="1.5" fill="#f7f7f7" stroke="#8a8a8a"/>
    <rect x="44" y="28" width="6" height="8" rx="1.5" fill="#eaf3ff" stroke="#8a8a8a"/>

    <rect x="14" y="38" width="8" height="8" rx="1.5" fill="#f7f7f7" stroke="#8a8a8a"/>
    <rect x="24" y="38" width="8" height="8" rx="1.5" fill="#f7f7f7" stroke="#8a8a8a"/>
    <rect x="34" y="38" width="8" height="8" rx="1.5" fill="#f7f7f7" stroke="#8a8a8a"/>
    <rect x="44" y="38" width="6" height="18" rx="1.5" fill="#eaf3ff" stroke="#8a8a8a"/>

    <rect x="14" y="48" width="18" height="8" rx="1.5" fill="#f7f7f7" stroke="#8a8a8a"/>
    <rect x="34" y="48" width="8" height="8" rx="1.5" fill="#f7f7f7" stroke="#8a8a8a"/>
  </g>
</svg>
