<svg xmlns="http://www.w3.org/2000/svg" viewBox="0 0 48 48" role="img" aria-hidden="true">
  <rect width="48" height="48" rx="6" fill="#24292f"/>
  <path fill="#fff" fill-rule="evenodd" d="M24 12c-6.63 0-12 5.37-12 12 0 5.3 3.44 9.8 8.2 11.39.6.11.82-.26.82-.58 0-.29-.01-1.07-.02-2.1-3.34.73-4.04-1.61-4.04-1.61-.54-1.38-1.35-1.75-1.35-1.75-1.1-.75.08-.74.08-.74 1.22.09 1.86 1.25 1.86 1.25 1.08 1.85 2.83 1.32 3.52 1.01.11-.78.42-1.32.77-1.62-2.67-.3-5.47-1.33-5.47-5.93 0-1.31.47-2.38 1.24-3.22-.12-.3-.54-1.52.12-3.17 0 0 1.01-.32 3.3 1.23a11.5 11.5 0 0 1 3-.4c1.02.01 2.05.14 3 .4 2.29-1.55 3.3-1.23 3.3-1.23.66 1.65.24 2.87.12 3.17.77.84 1.24 1.91 1.24 3.22 0 4.61-2.8 5.62-5.48 5.92.43.37.81 1.1.81 2.22 0 1.6-.01 2.89-.01 3.28 0 .32.22.7.83.58A12 12 0 0 0 36 24c0-6.63-5.37-12-12-12z" clip-rule="evenodd"/>
</svg>
