<svg xmlns="http://www.w3.org/2000/svg" viewBox="0 0 48 48" role="img" aria-hidden="true">
  <rect width="48" height="48" rx="6" fill="#25D366"/>
  <path fill="#fff" d="M24 10c-7.18 0-13 5.82-13 13 0 2.29.6 4.52 1.74 6.48L10 38l8.74-2.29A12.9 12.9 0 0 0 24 36c7.18 0 13-5.82 13-13S31.18 10 24 10zm0 23.6a10.5 10.5 0 0 1-5.35-1.46l-.38-.23-3.7.97.99-3.6-.25-.37A10.5 10.5 0 1 1 24 33.6zm5.9-7.9c-.32-.16-1.88-.93-2.17-1.04-.29-.1-.5-.16-.71.16-.21.32-.82 1.04-1 1.25-.19.21-.37.24-.69.08-.32-.16-1.35-.5-2.57-1.58-.95-.85-1.59-1.9-1.78-2.22-.19-.32-.02-.49.14-.65.15-.15.32-.37.48-.56.16-.19.21-.32.32-.53.1-.21.05-.4-.03-.56-.08-.16-.71-1.71-.97-2.34-.26-.61-.52-.53-.71-.54h-.61c-.21 0-.53.08-.8.4-.27.32-1.03 1.01-1.03 2.46 0 1.45 1.06 2.85 1.21 3.05.15.21 2.09 3.19 5.07 4.47.71.31 1.26.49 1.69.63.71.23 1.36.2 1.87.12.57-.09 1.88-.77 2.15-1.51.27-.74.27-1.38.19-1.51-.08-.13-.29-.21-.61-.37z"/>
</svg>
